# xmcd CD database file
#
# Track frame offsets:
#	150
#	21880
#	37785
#
# Disc length: 790 seconds
#
# Revision: 0
# Processed by: cddbd v1.5PL3 Copyright (c) Steve Scherf et al.
# Submitted via: CDex 1.50beta9
#
DISCID=16031403
DTITLE=ICE BOX - 冷たいキス
DYEAR=1994
DGENRE=JPop
TTITLE0=冷たいキス
TTITLE1=経験したいお年ごろ
TTITLE2=冷たいキス inst
EXTD=YEAR: 1994
EXTT0=
EXTT1=
EXTT2=
PLAYORDER=
